<svg xmlns="http://www.w3.org/2000/svg" xmlns:xlink="http://www.w3.org/1999/xlink" width="1200" height="151.388" viewBox="0 0 1200 151.388">
  <defs>
    <linearGradient id="linear-gradient" x1="0.283" y1="0.246" x2="0.86" y2="1.058" gradientUnits="objectBoundingBox">
      <stop offset="0" stop-color="#096fb2"/>
      <stop offset="1" stop-color="#053859"/>
    </linearGradient>
    <linearGradient id="linear-gradient-2" x1="0.5" y1="0" x2="0.5" y2="0.5" xlink:href="#linear-gradient"/>
  </defs>
  <g id="Group_403" data-name="Group 403" transform="translate(-97 -322)">
    <g id="Group_365" data-name="Group 365" transform="translate(97 322)">
      <rect id="Rectangle_52" data-name="Rectangle 52" width="25.241" height="42.068" rx="2" transform="translate(27.409 93.539) rotate(-45)" fill="#00ff08"/>
      <rect id="Rectangle_53" data-name="Rectangle 53" width="25.241" height="42.068" rx="2" transform="translate(94.717 26.231) rotate(-45)" fill="#fffc00"/>
      <g id="Group_364" data-name="Group 364" transform="translate(0 0)">
        <path id="Subtraction_6" data-name="Subtraction 6" d="M72.756,151.388h0A75.74,75.74,0,0,1,0,80.114c20.882-7.775,43.732-9.4,59.221-9.4,9.163,0,16.763.552,21.52,1.017C82.093,85.343,84,120.348,72.76,151.381ZM12.439,90.274A7.784,7.784,0,0,0,6.93,103.546l41.924,41.926a7.832,7.832,0,0,0,5.5,2.275,7.73,7.73,0,0,0,5.514-2.275,7.808,7.808,0,0,0-.013-11.008L17.923,92.553A7.668,7.668,0,0,0,12.439,90.274Zm33.673-7.549a7.764,7.764,0,0,0-5.483,13.256L56.436,111.8a7.772,7.772,0,0,0,10.993-10.99L51.6,85.006A7.713,7.713,0,0,0,46.113,82.725ZM89.6,150.147l0-.013c9.25-29.949,8.3-60.992,6.913-76.831,6.591.578,13.434.875,20.356.875A214.483,214.483,0,0,0,151.2,71.519c.078,1.458.117,2.868.117,4.2A75.7,75.7,0,0,1,89.61,150.145ZM.882,63.305l0-.015A75.756,75.756,0,0,1,75.593,0c1.829,0,3.693.067,5.535.2a228.583,228.583,0,0,0-1.964,55.737c-6.6-.578-13.43-.873-20.339-.873C37.462,55.061,17.975,57.833.9,63.3Zm115.583-4.771c-9.216,0-16.793-.556-21.529-1.021a215.481,215.481,0,0,1,1.551-54.6,76.046,76.046,0,0,1,52.252,53.149A203.073,203.073,0,0,1,116.465,58.535Zm-4.349-41.809a7.7,7.7,0,0,0-5.5,2.288A7.785,7.785,0,0,0,106.611,30l15.82,15.826a7.783,7.783,0,0,0,10.993,0,7.8,7.8,0,0,0,0-11.01l-15.807-15.8A7.743,7.743,0,0,0,112.116,16.726Z" transform="translate(0 0)" fill="url(#linear-gradient)"/>
        <path id="Path_49" data-name="Path 49" d="M11.733,107.065Q1.3,107.065,1.3,96.3V-3.659q0-10.6,10.433-10.6,10.6,0,10.6,10.6V35.381A27.052,27.052,0,0,1,33.609,25.2a35.2,35.2,0,0,1,15.649-3.45q29.111,0,29.111,33.823V96.3q0,10.769-10.433,10.77-10.6,0-10.6-10.77V56.583q0-9.592-3.618-13.967t-11.19-4.375q-9.255,0-14.724,5.805t-5.469,15.4V96.3Q22.334,107.065,11.733,107.065Zm128.561.337q-13.967,0-24.063-5.216a37.082,37.082,0,0,1-15.565-14.808Q95.2,77.786,95.2,64.66q0-12.789,5.3-22.38a38.952,38.952,0,0,1,14.64-15.06,41.335,41.335,0,0,1,21.287-5.469q17.5,0,27.681,11.106t10.181,30.289q0,6.226-8.077,6.226H115.39q2.356,22.044,25.241,22.044a50.694,50.694,0,0,0,9.844-1.094,35.853,35.853,0,0,0,10.349-3.786q4.375-2.524,7.4-1.6a6.635,6.635,0,0,1,4.291,3.618,8.339,8.339,0,0,1,.337,5.974q-.926,3.281-4.8,5.637a43.713,43.713,0,0,1-13.546,5.469A63.5,63.5,0,0,1,140.294,107.4Zm-3.029-71.348q-9.255,0-14.976,5.721t-6.9,15.481h41.4q-.673-10.265-5.637-15.734T137.265,36.054ZM218.036,107.4a35.438,35.438,0,0,1-15.9-3.45A27.52,27.52,0,0,1,191.2,94.613a23.3,23.3,0,0,1-3.954-13.294q0-9.087,4.712-14.387t15.313-7.656q10.6-2.356,28.438-2.356h5.89V53.386q0-8.414-3.7-12.116t-12.452-3.7a51.6,51.6,0,0,0-10.517,1.178,56.031,56.031,0,0,0-11.863,4.039q-4.039,1.851-6.731.421a7.241,7.241,0,0,1-3.618-4.543,9.429,9.429,0,0,1,.337-6.31,8.433,8.433,0,0,1,5.132-4.712A75.927,75.927,0,0,1,213.072,23.1a71.009,71.009,0,0,1,13.041-1.346q18.005,0,26.756,8.33t8.75,25.83V96.3q0,10.769-9.76,10.77-9.928,0-9.928-10.77v-3.7a22.967,22.967,0,0,1-9.087,10.854A27.035,27.035,0,0,1,218.036,107.4Zm4.375-14.472a18.18,18.18,0,0,0,13.714-5.721,20.1,20.1,0,0,0,5.469-14.472v-3.7h-5.721q-15.818,0-21.96,2.44t-6.142,8.834a11.748,11.748,0,0,0,3.87,9.087Q215.512,92.93,222.412,92.93Zm88.68,14.472q-28.1,0-28.1-31.467V-3.659q0-10.6,10.433-10.6,10.6,0,10.6,10.6V74.925q0,15.145,12.62,15.145,1.346,0,2.524-.084t2.356-.252q2.356-.337,3.2,1.262t.841,6.479a11.136,11.136,0,0,1-1.683,6.563q-1.683,2.356-5.553,2.861A51.107,51.107,0,0,1,311.092,107.4Zm62.261,0q-12.789,0-22.212-5.216A36.358,36.358,0,0,1,336.5,87.293q-5.217-9.676-5.217-22.8T336.5,41.775a36.489,36.489,0,0,1,14.64-14.808q9.423-5.216,22.212-5.216t22.212,5.216A36.489,36.489,0,0,1,410.2,41.775q5.216,9.592,5.216,22.717t-5.216,22.8a36.359,36.359,0,0,1-14.64,14.892Q386.142,107.4,373.353,107.4Zm0-15.986A18.792,18.792,0,0,0,388.5,84.6q5.721-6.815,5.721-20.109,0-13.462-5.721-20.109t-15.145-6.647q-9.423,0-15.145,6.647t-5.721,20.109q0,13.294,5.721,20.109A18.793,18.793,0,0,0,373.353,91.416Zm70.17,15.649q-10.433,0-10.433-10.77V32.688q0-10.6,10.265-10.6t10.265,10.6v3.365a26.826,26.826,0,0,1,10.265-10.517,29.759,29.759,0,0,1,15.145-3.786q18.51,0,24.231,16.154a28.684,28.684,0,0,1,11.106-11.863,31.71,31.71,0,0,1,16.491-4.291q27.765,0,27.765,33.823V96.3q0,10.769-10.6,10.77-10.433,0-10.433-10.77V56.415q0-9.423-3.113-13.8t-10.517-4.375q-8.245,0-12.957,5.805t-4.712,16.07V96.3q0,10.769-10.433,10.77-10.6,0-10.6-10.77V56.415q0-9.423-3.113-13.8t-10.349-4.375q-8.245,0-12.957,5.805t-4.712,16.07V96.3Q454.124,107.065,443.523,107.065Zm177.36.337q-13.967,0-24.063-5.216a37.082,37.082,0,0,1-15.565-14.808q-5.469-9.592-5.469-22.717,0-12.789,5.3-22.38a38.951,38.951,0,0,1,14.64-15.06,41.334,41.334,0,0,1,21.287-5.469q17.5,0,27.681,11.106t10.18,30.289q0,6.226-8.077,6.226H595.979q2.356,22.044,25.241,22.044a50.7,50.7,0,0,0,9.844-1.094,35.853,35.853,0,0,0,10.349-3.786q4.375-2.524,7.4-1.6a6.636,6.636,0,0,1,4.291,3.618,8.339,8.339,0,0,1,.336,5.974q-.926,3.281-4.8,5.637a43.713,43.713,0,0,1-13.546,5.469A63.5,63.5,0,0,1,620.883,107.4Zm-3.029-71.348q-9.255,0-14.976,5.721t-6.9,15.481h41.4q-.673-10.265-5.637-15.734T617.855,36.054ZM681.63,106.56a12.233,12.233,0,0,1-9.171-3.534,12.463,12.463,0,0,1-3.45-9.087,11.961,11.961,0,0,1,3.45-8.834,12.4,12.4,0,0,1,9.171-3.45q5.89,0,9.171,3.45a12.3,12.3,0,0,1,3.281,8.834,12.825,12.825,0,0,1-3.281,9.087Q687.52,106.56,681.63,106.56Zm66.131.841q-12.789,0-22.212-5.216a36.358,36.358,0,0,1-14.64-14.892q-5.216-9.676-5.216-22.8t5.216-22.717a36.489,36.489,0,0,1,14.64-14.808q9.423-5.216,22.212-5.216t22.212,5.216a36.49,36.49,0,0,1,14.64,14.808q5.216,9.592,5.216,22.717t-5.216,22.8a36.359,36.359,0,0,1-14.64,14.892Q760.551,107.4,747.762,107.4Zm0-15.986A18.793,18.793,0,0,0,762.906,84.6q5.721-6.815,5.721-20.109,0-13.462-5.721-20.109t-15.145-6.647q-9.423,0-15.145,6.647T726.9,64.492q0,13.294,5.721,20.109A18.792,18.792,0,0,0,747.762,91.416ZM817.6,107.065q-10.433,0-10.433-10.77V32.688q0-10.6,10.265-10.6t10.265,10.6v3.534a27.972,27.972,0,0,1,11.358-10.77,34.436,34.436,0,0,1,16.07-3.7q29.111,0,29.111,33.823V96.3q0,10.769-10.433,10.77-10.6,0-10.6-10.77V56.583q0-9.592-3.618-13.967t-11.19-4.375q-9.255,0-14.724,5.805t-5.469,15.4V96.3Q828.2,107.065,817.6,107.065Zm128.561.337q-13.966,0-24.063-5.216a37.082,37.082,0,0,1-15.565-14.808q-5.469-9.592-5.469-22.717,0-12.789,5.3-22.38A38.951,38.951,0,0,1,921,27.219a41.334,41.334,0,0,1,21.287-5.469q17.5,0,27.681,11.106t10.181,30.289q0,6.226-8.077,6.226H921.252q2.356,22.044,25.241,22.044a50.692,50.692,0,0,0,9.844-1.094,35.854,35.854,0,0,0,10.349-3.786q4.375-2.524,7.4-1.6a6.635,6.635,0,0,1,4.291,3.618,8.338,8.338,0,0,1,.337,5.974q-.926,3.281-4.8,5.637a43.712,43.712,0,0,1-13.546,5.469A63.5,63.5,0,0,1,946.156,107.4Zm-3.029-71.348q-9.255,0-14.976,5.721t-6.9,15.481h41.4q-.673-10.265-5.637-15.734T943.128,36.054Z" transform="translate(219.852 28.896)" fill="url(#linear-gradient-2)"/>
      </g>
    </g>
  </g>
</svg>
