<svg xmlns="http://www.w3.org/2000/svg" xmlns:xlink="http://www.w3.org/1999/xlink" width="877.958" height="878.374" viewBox="0 0 877.958 878.374">
  <defs>
    <linearGradient id="linear-gradient" x1="0.283" y1="0.246" x2="0.86" y2="1.058" gradientUnits="objectBoundingBox">
      <stop offset="0" stop-color="#096fb2"/>
      <stop offset="1" stop-color="#053859"/>
    </linearGradient>
  </defs>
  <g id="Group_407" data-name="Group 407" transform="translate(-7596 2058)">
    <circle id="Ellipse_11" data-name="Ellipse 11" cx="438.432" cy="438.432" r="438.432" transform="translate(7596 -2058)" fill="#fff"/>
    <g id="Group_366" data-name="Group 366" transform="translate(7596 -2058)">
      <rect id="Rectangle_52" data-name="Rectangle 52" width="146.452" height="244.087" rx="2" transform="translate(159.032 542.728) rotate(-45)" fill="#00ff08"/>
      <rect id="Rectangle_53" data-name="Rectangle 53" width="146.452" height="244.087" rx="2" transform="translate(549.566 152.194) rotate(-45)" fill="#fffc00"/>
      <path id="Subtraction_6" data-name="Subtraction 6" d="M422.139,878.374h-.025A439.456,439.456,0,0,1,0,464.832c121.159-45.113,253.737-54.567,343.61-54.567,53.168,0,97.26,3.2,124.864,5.9,7.84,79.008,18.882,282.111-46.31,462.172ZM72.176,523.785a45.163,45.163,0,0,0-31.966,77L283.46,844.051a45.442,45.442,0,0,0,31.89,13.2,44.849,44.849,0,0,0,31.991-13.2,45.3,45.3,0,0,0-.076-63.869L103.991,537.008A44.492,44.492,0,0,0,72.176,523.785Zm195.376-43.8A45.046,45.046,0,0,0,235.737,556.9l91.713,91.8a45.1,45.1,0,0,0,63.781-63.768l-91.814-91.713A44.75,44.75,0,0,0,267.552,479.983Zm252.3,391.194.025-.076c53.672-173.771,48.176-353.883,40.109-445.786,38.243,3.353,77.949,5.08,118.108,5.08,69.3,0,136.335-5.193,199.183-15.428.454,8.458.681,16.638.681,24.378,0,211.41-150.578,393.021-358.03,431.82ZM5.118,367.308l.025-.088A439.549,439.549,0,0,1,438.6,0c10.613,0,21.428.391,32.117,1.147C448,135.717,453.828,261.514,459.324,324.539c-38.269-3.353-77.924-5.067-118.007-5.067-123.957,0-237.023,16.084-336.1,47.81Zm670.633-27.68c-53.47,0-97.436-3.227-124.915-5.924-6.126-61.663-13.008-184.713,9-316.774,147.352,42.2,263.519,160.385,303.174,308.379C804.144,334.825,741.17,339.627,675.75,339.627ZM650.515,97.045a44.7,44.7,0,0,0-31.89,13.273,45.167,45.167,0,0,0-.05,63.756L710.363,265.9a45.16,45.16,0,0,0,63.781,0,45.251,45.251,0,0,0,0-63.882l-91.713-91.7A44.928,44.928,0,0,0,650.515,97.045Z" transform="translate(0 0)" fill="url(#linear-gradient)"/>
    </g>
  </g>
</svg>
