<svg xmlns="http://www.w3.org/2000/svg" xmlns:xlink="http://www.w3.org/1999/xlink" width="2402.549" height="303.095" viewBox="0 0 2402.549 303.095">
  <defs>
    <linearGradient id="linear-gradient" x1="0.283" y1="0.246" x2="0.86" y2="1.058" gradientUnits="objectBoundingBox">
      <stop offset="0" stop-color="#096fb2"/>
      <stop offset="1" stop-color="#053859"/>
    </linearGradient>
    <linearGradient id="linear-gradient-2" x1="0.5" y1="0" x2="0.5" y2="0.5" xlink:href="#linear-gradient"/>
  </defs>
  <g id="Group_409" data-name="Group 409" transform="translate(-10186.999 2128)">
    <g id="Group_399" data-name="Group 399" transform="translate(-9.241 -1.839)">
      <rect id="Rectangle_52" data-name="Rectangle 52" width="50.536" height="84.226" rx="2" transform="translate(10251.12 -1938.878) rotate(-45)" fill="#fffc00"/>
      <rect id="Rectangle_53" data-name="Rectangle 53" width="50.536" height="84.226" rx="2" transform="translate(10385.878 -2073.639) rotate(-45)" fill="#00ff08"/>
      <path id="Subtraction_6" data-name="Subtraction 6" d="M145.667,303.1h0A151.63,151.63,0,0,1,0,160.4c41.814-15.568,87.564-18.832,118.566-18.832,18.355,0,33.558,1.1,43.087,2.035,2.707,27.261,6.519,97.352-15.977,159.485ZM24.91,180.739a15.59,15.59,0,0,0-11.035,26.571l83.94,83.94a15.663,15.663,0,0,0,11.008,4.555,15.464,15.464,0,0,0,11.035-4.555,15.629,15.629,0,0,0-.027-22.038L35.882,185.3A15.356,15.356,0,0,0,24.91,180.739Zm67.41-15.114a15.539,15.539,0,0,0-10.972,26.536l31.643,31.683a15.563,15.563,0,0,0,22.016-22L103.319,170.19A15.433,15.433,0,0,0,92.32,165.626ZM179.386,300.61l.009-.022c18.525-59.964,16.628-122.115,13.84-153.825,13.2,1.153,26.9,1.75,40.754,1.75a429.649,429.649,0,0,0,68.737-5.321c.151,2.917.232,5.74.232,8.412A151.578,151.578,0,0,1,179.412,300.61ZM1.772,126.746l.009-.031A151.666,151.666,0,0,1,151.349,0c3.66,0,7.392.134,11.088.4-7.837,46.436-5.833,89.84-3.945,111.588-13.2-1.158-26.887-1.75-40.71-1.75-42.776,0-81.793,5.553-115.975,16.5Zm231.406-9.556c-18.444,0-33.62-1.109-43.1-2.044-2.12-21.272-4.5-63.736,3.1-109.3A152.268,152.268,0,0,1,297.8,112.252,406.367,406.367,0,0,1,233.178,117.19Zm-8.71-83.7a15.424,15.424,0,0,0-11,4.578,15.586,15.586,0,0,0-.018,22l31.67,31.683a15.588,15.588,0,0,0,22.016,0,15.621,15.621,0,0,0,0-22.038L235.485,38.064A15.5,15.5,0,0,0,224.468,33.487Z" transform="translate(10196.241 -2126.161)" fill="url(#linear-gradient)"/>
      <path id="Path_49" data-name="Path 49" d="M22.188,228.647Q1.3,228.647,1.3,207.085V6.965Q1.3-14.26,22.188-14.26q21.225,0,21.225,21.225V85.126A54.161,54.161,0,0,1,65.985,64.744a70.468,70.468,0,0,1,31.332-6.907q58.284,0,58.284,67.718v81.531q0,21.562-20.888,21.562-21.225,0-21.225-21.562V127.576q0-19.2-7.243-27.963t-22.4-8.759q-18.53,0-29.479,11.623T43.413,133.3v73.782Q43.413,228.647,22.188,228.647Zm257.394.674q-27.963,0-48.177-10.444a74.243,74.243,0,0,1-31.164-29.647q-10.949-19.2-10.949-45.482,0-25.6,10.612-44.808a77.986,77.986,0,0,1,29.311-30.153q18.7-10.949,42.618-10.949,35.038,0,55.421,22.236t20.383,60.643q0,12.465-16.171,12.465H229.721q4.717,44.134,50.536,44.134a101.5,101.5,0,0,0,19.709-2.19,71.78,71.78,0,0,0,20.72-7.58q8.759-5.054,14.824-3.2a13.285,13.285,0,0,1,8.591,7.243,16.7,16.7,0,0,1,.674,11.96q-1.853,6.57-9.6,11.286a87.518,87.518,0,0,1-27.121,10.949A127.127,127.127,0,0,1,279.582,229.321ZM273.518,86.474q-18.53,0-29.984,11.455t-13.813,31H312.6q-1.348-20.551-11.286-31.5T273.518,86.474ZM435.232,229.321q-17.856,0-31.837-6.907a55.1,55.1,0,0,1-21.9-18.7,46.659,46.659,0,0,1-7.917-26.615q0-18.193,9.433-28.805t30.658-15.329q21.225-4.717,56.937-4.717H482.4v-7.075q0-16.845-7.412-24.257t-24.931-7.412A103.3,103.3,0,0,0,429,91.865a112.179,112.179,0,0,0-23.752,8.086q-8.086,3.706-13.476.842a14.5,14.5,0,0,1-7.243-9.1,18.879,18.879,0,0,1,.674-12.634q2.527-6.4,10.276-9.433a152.019,152.019,0,0,1,29.816-9.1,142.169,142.169,0,0,1,26.11-2.7q36.049,0,53.568,16.677t17.519,51.715v80.857q0,21.562-19.54,21.562-19.877,0-19.877-21.562v-7.412a45.983,45.983,0,0,1-18.193,21.73Q452.414,229.321,435.232,229.321Zm8.76-28.974q16.508,0,27.458-11.455T482.4,159.919v-7.412H470.943q-31.669,0-43.966,4.885t-12.3,17.687q0,11.118,7.749,18.193T443.991,200.347Zm177.548,28.974q-56.263,0-56.263-63V6.965q0-21.225,20.888-21.225,21.225,0,21.225,21.225V164.3q0,30.321,25.268,30.321,2.7,0,5.053-.168t4.717-.505q4.717-.674,6.4,2.527t1.685,12.971q0,8.423-3.369,13.139t-11.118,5.727A102.325,102.325,0,0,1,621.539,229.321Zm124.654,0q-25.6,0-44.471-10.444a72.794,72.794,0,0,1-29.311-29.816q-10.444-19.372-10.444-45.65t10.444-45.482a73.056,73.056,0,0,1,29.311-29.647q18.867-10.444,44.471-10.444t44.471,10.444a73.056,73.056,0,0,1,29.311,29.647q10.444,19.2,10.444,45.482t-10.444,45.65a72.794,72.794,0,0,1-29.311,29.816Q771.8,229.321,746.194,229.321Zm0-32.006q18.867,0,30.321-13.645t11.455-40.26q0-26.952-11.455-40.26T746.194,89.843q-18.867,0-30.321,13.308t-11.455,40.26q0,26.615,11.455,40.26T746.194,197.315Zm140.489,31.332q-20.888,0-20.888-21.562V79.736q0-21.225,20.551-21.225T906.9,79.736v6.738a53.706,53.706,0,0,1,20.551-21.056q13.139-7.58,30.321-7.58,37.059,0,48.514,32.343a57.43,57.43,0,0,1,22.236-23.752q14.487-8.591,33.017-8.591,55.589,0,55.589,67.718v81.531q0,21.562-21.225,21.562-20.888,0-20.888-21.562V127.239q0-18.867-6.233-27.626t-21.057-8.759q-16.508,0-25.942,11.623t-9.433,32.174v72.434q0,21.562-20.888,21.562-21.225,0-21.225-21.562V127.239q0-18.867-6.233-27.626t-20.72-8.759q-16.508,0-25.942,11.623t-9.433,32.174v72.434Q907.907,228.647,886.682,228.647Zm355.1.674q-27.963,0-48.177-10.444a74.242,74.242,0,0,1-31.164-29.647q-10.949-19.2-10.949-45.482,0-25.6,10.612-44.808a77.985,77.985,0,0,1,29.311-30.153q18.7-10.949,42.618-10.949,35.038,0,55.421,22.236t20.383,60.643q0,12.465-16.172,12.465H1191.917q4.717,44.134,50.535,44.134a101.494,101.494,0,0,0,19.709-2.19,71.78,71.78,0,0,0,20.719-7.58q8.76-5.054,14.824-3.2a13.285,13.285,0,0,1,8.591,7.243,16.694,16.694,0,0,1,.674,11.96q-1.853,6.57-9.6,11.286a87.517,87.517,0,0,1-27.121,10.949A127.126,127.126,0,0,1,1241.779,229.321Zm-6.064-142.847q-18.53,0-29.984,11.455t-13.813,31H1274.8q-1.347-20.551-11.286-31.5T1235.714,86.474ZM1363.4,227.636q-11.455,0-18.361-7.075t-6.907-18.193q0-10.781,6.907-17.687t18.361-6.907q11.792,0,18.361,6.907t6.57,17.687q0,11.118-6.57,18.193T1363.4,227.636Zm132.4,1.685q-25.6,0-44.471-10.444a72.8,72.8,0,0,1-29.311-29.816q-10.444-19.372-10.444-45.65t10.444-45.482a73.058,73.058,0,0,1,29.311-29.647Q1470.2,57.837,1495.8,57.837t44.471,10.444a73.056,73.056,0,0,1,29.311,29.647q10.444,19.2,10.444,45.482t-10.444,45.65a72.794,72.794,0,0,1-29.311,29.816Q1521.409,229.321,1495.8,229.321Zm0-32.006q18.866,0,30.321-13.645t11.455-40.26q0-26.952-11.455-40.26T1495.8,89.843q-18.867,0-30.321,13.308t-11.455,40.26q0,26.615,11.455,40.26T1495.8,197.315Zm139.815,31.332q-20.888,0-20.888-21.562V79.736q0-21.225,20.551-21.225t20.551,21.225v7.075a56,56,0,0,1,22.741-21.562,68.945,68.945,0,0,1,32.174-7.412q58.284,0,58.284,67.718v81.531q0,21.562-20.888,21.562-21.225,0-21.225-21.562V127.576q0-19.2-7.243-27.963t-22.4-8.759q-18.529,0-29.479,11.623T1656.844,133.3v73.782Q1656.844,228.647,1635.619,228.647Zm257.394.674q-27.963,0-48.177-10.444a74.241,74.241,0,0,1-31.164-29.647q-10.949-19.2-10.949-45.482,0-25.6,10.612-44.808a77.986,77.986,0,0,1,29.311-30.153q18.7-10.949,42.618-10.949,35.038,0,55.421,22.236t20.383,60.643q0,12.465-16.172,12.465H1843.151q4.717,44.134,50.536,44.134a101.5,101.5,0,0,0,19.709-2.19,71.779,71.779,0,0,0,20.719-7.58q8.76-5.054,14.824-3.2a13.285,13.285,0,0,1,8.591,7.243,16.7,16.7,0,0,1,.674,11.96q-1.853,6.57-9.6,11.286a87.521,87.521,0,0,1-27.121,10.949A127.127,127.127,0,0,1,1893.013,229.321Zm-6.064-142.847q-18.53,0-29.984,11.455t-13.813,31h82.878q-1.348-20.551-11.286-31.5T1886.949,86.474Z" transform="translate(10637.723 -2082.594)" fill="url(#linear-gradient-2)"/>
    </g>
  </g>
</svg>
